<?xml version="1.0" standalone="no"?>
<!DOCTYPE svg PUBLIC "-//W3C//DTD SVG 20010904//EN"
 "http://www.w3.org/TR/2001/REC-SVG-20010904/DTD/svg10.dtd">
<svg version="1.0" xmlns="http://www.w3.org/2000/svg"
 width="799.000000pt" height="800.000000pt" viewBox="0 0 799.000000 800.000000"
 preserveAspectRatio="xMidYMid meet">
<metadata>
Created by potrace 1.14, written by Peter Selinger 2001-2017
</metadata>
<g transform="translate(0.000000,800.000000) scale(0.100000,-0.100000)"
fill="#C3002F" stroke="none">
<path d="M6479 7241 c-14 -5 -35 -13 -47 -20 -12 -6 -43 -14 -69 -17 -196 -21
-210 -30 -224 -140 -12 -103 -23 -136 -63 -203 -41 -67 -41 -72 1 -152 13 -26
27 -73 32 -105 11 -81 7 -313 -8 -464 -14 -144 -14 -162 -6 -250 5 -41 3 -81
-5 -105 -12 -42 -26 -129 -36 -228 -6 -54 -3 -65 35 -145 22 -48 45 -108 49
-133 5 -26 23 -66 41 -90 17 -24 38 -61 47 -81 21 -46 62 -64 152 -67 49 -2
73 -8 96 -24 28 -20 44 -22 146 -22 77 0 123 5 139 14 12 7 50 17 84 21 43 7
67 16 82 33 35 37 47 66 40 97 -4 18 0 40 11 62 21 40 42 224 37 323 -2 39 -8
153 -14 255 -16 270 -14 351 11 470 23 109 21 239 -3 268 -6 7 -17 43 -24 80
-8 37 -19 90 -25 117 -5 28 -11 71 -13 97 -2 25 -8 77 -14 115 -5 37 -10 82
-10 98 1 45 -28 136 -52 161 -19 21 -33 23 -138 28 -64 3 -141 7 -171 10 -30
3 -67 1 -81 -3z m355 -152 c31 -37 33 -69 6 -94 -28 -25 -25 -38 13 -55 40
-19 47 -55 16 -89 -18 -19 -29 -22 -61 -18 -30 4 -40 1 -48 -13 -20 -38 -13
-51 27 -46 32 4 41 0 70 -31 19 -19 33 -43 31 -51 -5 -24 -61 -58 -109 -66
-74 -12 -117 41 -118 147 -1 34 -5 47 -16 47 -18 0 -31 -24 -40 -75 -14 -82
-45 -140 -45 -84 0 11 -4 17 -10 14 -5 -3 -10 -17 -10 -31 0 -15 -6 -24 -15
-24 -8 0 -15 5 -15 10 0 6 -6 10 -14 10 -26 0 -28 33 -3 55 33 31 30 76 -5 93
-37 17 -40 67 -5 75 27 7 114 87 95 87 -19 0 -58 54 -58 80 0 13 7 21 20 22
11 0 26 1 33 2 6 1 11 -5 9 -13 -2 -9 3 -11 14 -7 11 4 22 -1 31 -14 8 -11 20
-20 27 -20 16 0 71 58 63 66 -8 8 53 52 75 53 9 1 28 -13 42 -30z m-513 -15
c18 -17 28 -40 32 -67 2 -23 6 -48 8 -55 4 -15 -8 -24 -59 -43 -19 -7 -41 -23
-49 -36 -15 -23 -14 -26 17 -58 26 -27 33 -42 32 -71 -2 -47 -11 -56 -52 -52
-42 4 -71 41 -77 102 -5 40 -1 53 36 114 l41 69 -15 42 c-20 58 -6 96 33 86
15 -3 39 -18 53 -31z m29 -448 c0 -2 -11 -38 -25 -80 -18 -55 -25 -98 -25
-156 0 -80 -12 -110 -45 -110 -33 0 -80 70 -71 106 6 21 11 25 30 20 20 -5 25
0 34 33 7 21 12 45 12 53 0 22 42 122 55 130 10 8 35 11 35 4z m498 -47 c55
-27 68 -57 51 -118 -11 -37 -10 -46 1 -49 24 -8 60 -50 60 -69 0 -30 -28 -60
-60 -65 -17 -3 -30 0 -30 6 0 17 -144 59 -171 50 -13 -4 -46 -9 -74 -10 -63
-2 -99 -9 -137 -25 -20 -8 -32 -9 -36 -2 -4 6 -16 12 -27 14 -26 5 -24 21 4
34 16 7 20 16 16 30 -23 77 -16 161 12 151 19 -8 101 17 158 47 18 9 98 22
164 26 14 0 44 -9 69 -20z m-191 -407 c49 -44 59 -75 26 -80 -42 -6 -24 -20
35 -27 93 -11 142 -41 142 -84 0 -20 -82 -3 -100 20 -7 9 -90 22 -90 15 0 -4
7 -23 15 -42 8 -20 12 -40 9 -45 -5 -8 32 -67 51 -81 6 -4 -4 -21 -23 -39
l-33 -32 22 -24 c13 -12 28 -23 35 -23 12 0 24 -22 24 -44 0 -7 -18 -20 -40
-29 -39 -15 -40 -16 -40 -66 0 -68 -18 -146 -40 -173 -17 -21 -20 -21 -45 -8
-29 16 -29 11 -9 149 l7 44 -29 -7 c-16 -4 -39 -17 -51 -28 -26 -24 -54 -18
-73 18 -11 20 -12 29 -2 45 7 11 10 24 7 29 -4 6 6 15 22 21 15 5 38 22 49 37
l21 26 -31 15 c-31 16 -34 26 -21 81 3 14 1 32 -5 40 -8 13 -13 13 -41 -2 -52
-30 -90 -17 -102 34 -7 26 -4 29 89 74 l97 47 -27 19 c-34 26 -33 35 8 59 19
11 33 26 30 33 -6 15 40 66 58 66 7 -1 32 -18 55 -38z m-327 -397 c9 -10 10
-37 5 -96 -7 -80 -7 -81 25 -125 37 -52 34 -70 -12 -82 -70 -18 -27 -38 152
-71 63 -11 142 -23 175 -27 33 -4 65 -10 71 -15 14 -11 84 1 84 15 0 6 4 5 9
-3 6 -10 20 -12 45 -8 29 5 41 1 62 -18 24 -22 25 -25 10 -53 -9 -17 -28 -40
-43 -52 -26 -21 -35 -22 -138 -16 -117 7 -250 36 -269 60 -6 7 -23 16 -37 20
-14 3 -52 21 -83 40 -83 50 -107 53 -163 22 -27 -15 -54 -24 -65 -20 -54 17
-36 103 28 130 20 8 49 25 65 36 27 20 28 23 22 87 -4 46 -12 73 -26 88 -15
18 -18 29 -12 60 6 33 8 36 19 20 12 -16 14 -16 31 3 22 24 29 25 45 5z"/>
<path d="M2634 6610 c-207 -17 -527 -87 -669 -145 -223 -92 -370 -168 -516
-266 -269 -181 -517 -430 -692 -697 -219 -332 -349 -700 -392 -1107 -169
-1599 950 -3078 2535 -3349 230 -39 358 -50 625 -49 853 0 1634 276 2310 816
298 238 537 499 805 877 140 197 257 352 368 485 121 144 385 400 548 531 141
114 347 258 407 285 27 12 27 14 27 110 l0 98 -99 -34 c-368 -128 -660 -319
-995 -650 -123 -121 -220 -234 -389 -455 -61 -80 -149 -194 -196 -255 -278
-360 -612 -698 -931 -942 -722 -551 -1536 -772 -2315 -628 -344 64 -661 203
-955 418 -123 90 -144 108 -274 236 -756 737 -1052 1917 -724 2886 45 136 167
379 254 507 330 488 790 788 1359 884 136 23 433 23 570 0 270 -45 517 -147
729 -302 112 -81 298 -270 379 -384 80 -113 194 -338 236 -467 68 -209 99
-513 72 -716 -88 -657 -598 -1138 -1256 -1183 -460 -31 -869 200 -1070 604
-69 139 -96 249 -102 421 -4 95 -1 168 7 215 61 343 313 608 657 693 94 23
286 22 373 -1 195 -52 348 -174 445 -356 40 -75 43 -65 15 38 -75 271 -290
485 -567 564 -114 33 -351 33 -473 0 -282 -77 -512 -253 -645 -495 -83 -151
-125 -325 -125 -517 0 -625 453 -1149 1075 -1246 146 -22 395 -15 540 16 314
67 577 211 805 440 212 213 363 495 424 791 61 298 37 663 -65 973 -180 549
-606 1005 -1134 1214 -176 70 -305 103 -510 131 -105 15 -357 21 -471 11z"/>
<path d="M3808 4470 c-19 -337 -270 -595 -603 -618 l-90 -6 45 -14 c69 -21
212 -18 290 7 170 54 295 173 359 341 22 58 25 80 25 200 0 169 -18 232 -26
90z"/>
</g>
</svg>
